PathFileType	4	(X/Y/Z)	/Users/itak/Documents/Research/Walk-IL/dataset/trc/00105_00007.trc
DataRate	CameraRate	NumFrames	NumMarkers	Units	OrigDataRate	OrigDataStartFrame	OrigNumFrames
100.000000	100.000000	4	53	mm	100.000000	471	539
Frame#	Time	RPSI			LPSI			L3			STRN			T10			C7			CLAV			RBAK			LBAK			LSHO			LUPA			LAEL			LAOL			LWTS			LWPS			LFRA			LIFD			LHPS			LHTS			RSHO			RUPA			RAEL			RAOL			RWTS			RWPS			RFRA			RIFD			RHTS			RHPS			RBHD			LFHD			RFHD			LBHD			LHIP			RHIP			RASI			LASI			LKNE			LTHI			LANK			LTIP			LTOE			LMT1			LMT5			LHEE			RKNE			RTHI			RANK			RTIP			RTOE			RMT1			RMT5			RHEE			
		X1	Y1	Z1	X2	Y2	Z2	X3	Y3	Z3	X4	Y4	Z4	X5	Y5	Z5	X6	Y6	Z6	X7	Y7	Z7	X8	Y8	Z8	X9	Y9	Z9	X10	Y10	Z10	X11	Y11	Z11	X12	Y12	Z12	X13	Y13	Z13	X14	Y14	Z14	X15	Y15	Z15	X16	Y16	Z16	X17	Y17	Z17	X18	Y18	Z18	X19	Y19	Z19	X20	Y20	Z20	X21	Y21	Z21	X22	Y22	Z22	X23	Y23	Z23	X24	Y24	Z24	X25	Y25	Z25	X26	Y26	Z26	X27	Y27	Z27	X28	Y28	Z28	X29	Y29	Z29	X30	Y30	Z30	X31	Y31	Z31	X32	Y32	Z32	X33	Y33	Z33	X34	Y34	Z34	X35	Y35	Z35	X36	Y36	Z36	X37	Y37	Z37	X38	Y38	Z38	X39	Y39	Z39	X40	Y40	Z40	X41	Y41	Z41	X42	Y42	Z42	X43	Y43	Z43	X44	Y44	Z44	X45	Y45	Z45	X46	Y46	Z46	X47	Y47	Z47	X48	Y48	Z48	X49	Y49	Z49	X50	Y50	Z50	X51	Y51	Z51	X52	Y52	Z52	X53	Y53	Z53	

472	4.71	212.3756256103516	1123.205444335938	-141.7949066162109	216.3971099853516	1124.019287109375	-277.0970153808594	207.1524658203125	1156.657836914062	-211.62646484375	413.0673828125	1367.960327148438	-207.2934112548828	160.6596069335938	1302.894653320312	-214.6746978759766	180.2934417724609	1596.677368164062	-230.4653015136719	368.5020751953125	1500.26806640625	-213.7051544189453	135.0463256835938	1409.986572265625	-142.0226287841797	177.1626892089844	1575.883666992188	-331.9000549316406	267.96044921875	1567.637451171875	-396.0645141601562	258.2583618164062	1435.967529296875	-468.4294128417969	290.457275390625	1218.949096679688	-492.3370971679688	221.757080078125	1200.464477539062	-440.1396484375	413.4250793457031	973.3351440429688	-446.0272216796875	336.12646484375	938.882568359375	-477.8087463378906	317.9995422363281	1105.034057617188	-496.5523986816406	441.3018493652344	780.632568359375	-422.0935363769531	372.1068115234375	866.8868408203125	-476.8087768554688	438.0932312011719	885.8712768554688	-456.3734436035156	230.7724914550781	1582.979736328125	-46.60077285766602	217.6753692626953	1508.552856445312	16.97570037841797	229.2838134765625	1213.735107421875	41.3809814453125	228.3414916992188	1211.273315429688	-55.08406448364258	402.8840026855469	991.2686157226562	35.05727005004883	331.0652465820312	965.034912109375	64.70437622070312	261.1384887695312	1143.495727539062	58.58852386474609	451.571044921875	800.9866333007812	17.86603164672852	445.1488647460938	886.8441772460938	40.50123596191406	379.8583679199219	870.65673828125	69.12521362304688	213.8236694335938	1775.739624023438	-150.1648864746094	371.1436767578125	1843.173217773438	-289.5863037109375	373.4186096191406	1852.332885742188	-160.1626739501953	202.2516174316406	1769.657836914062	-285.7738952636719	314.4696044921875	1040.455444335938	-383.5104064941406	342.4157104492188	1032.298828125	-20.77822494506836	419.6237182617188	1109.630859375	-72.26206207275391	417.7696228027344	1110.532104492188	-338.4166564941406	372.8139343261719	538.7935791015625	-359.0147094726562	342.6773071289062	684.916015625	-382.8178405761719	224.4461517333984	39.16163635253906	-371.6423645019531	257.3254699707031	295.0020751953125	-396.352783203125	453.9229431152344	36.25883483886719	-299.6815490722656	368.9756774902344	42.83341598510742	-274.9132690429688	351.5135498046875	34.12070465087891	-393.03369140625	152.1575927734375	43.21721267700195	-313.5213928222656	326.9583129882812	539.4823608398438	-69.75478363037109	358.1828918457031	818.425537109375	-34.64529418945312	223.1663513183594	31.25429153442383	-100.8605422973633	300.018310546875	406.8981628417969	-62.92857360839844	454.8986511230469	39.78140258789062	-162.3225402832031	391.2000732421875	34.38019180297852	-200.7467193603516	357.6144714355469	39.35606002807617	-82.34121704101562	164.4478607177734	35.48800659179688	-146.5336761474609	
473	4.72	213.3340606689453	1123.331787109375	-142.7225952148438	217.3849182128906	1124.219360351562	-278.014892578125	208.1607818603516	1156.810424804688	-212.5620880126953	414.4036254882812	1367.806030273438	-208.1970672607422	161.9251403808594	1303.052368164062	-215.6838073730469	181.8449859619141	1596.8203125	-231.5435180664062	369.9700012207031	1500.14697265625	-214.6726684570312	136.3120727539062	1410.273071289062	-143.0216979980469	178.7488250732422	1575.961181640625	-332.9841613769531	269.544189453125	1567.57861328125	-397.0259094238281	260.34765625	1435.973754882812	-469.5192260742188	294.3408813476562	1219.167724609375	-493.5877380371094	225.4506225585938	1200.0625	-441.824951171875	419.5758361816406	974.8746948242188	-446.7252807617188	342.8264770507812	939.5829467773438	-478.9593505859375	322.9838562011719	1105.519287109375	-497.7156066894531	449.5043334960938	782.4927978515625	-422.7923278808594	379.6629943847656	868.0220947265625	-477.8512573242188	445.3211059570312	887.768310546875	-456.9585266113281	232.3690032958984	1583.128173828125	-47.61356735229492	219.1251678466797	1508.743530273438	15.9458532333374	229.4801025390625	1213.938110351562	40.03755569458008	228.5233154296875	1211.593994140625	-56.4135856628418	400.4837341308594	989.4752197265625	33.4514045715332	328.3872375488281	964.1663818359375	63.22591781616211	260.5996704101562	1143.446899414062	57.17733001708984	446.5806884765625	798.5209350585938	15.9076042175293	441.4031372070312	884.4586181640625	38.67524719238281	375.9643249511719	869.1282348632812	67.44672393798828	215.3330688476562	1775.73583984375	-151.4580993652344	372.6859130859375	1843.15087890625	-290.8612365722656	374.9218139648438	1852.432495117188	-161.4313659667969	203.8565521240234	1769.53662109375	-287.0351867675781	315.2780151367188	1040.469604492188	-384.2901306152344	342.9557495117188	1032.264526367188	-21.76032638549805	420.5618591308594	1109.517700195312	-73.10805511474609	419.0964965820312	1110.565673828125	-339.4151611328125	370.2639465332031	538.8523559570312	-359.6968383789062	341.3544921875	684.8801879882812	-383.6671142578125	224.3465728759766	38.84552001953125	-371.7195129394531	255.8142852783203	294.7411193847656	-396.8086242675781	453.8762817382812	36.2928352355957	-299.6701049804688	368.9136962890625	42.7939567565918	-274.86279296875	351.4758911132812	34.12245941162109	-393.0235900878906	152.0233459472656	42.63598251342773	-313.6202392578125	327.333740234375	539.4459838867188	-70.41935729980469	358.8475036621094	818.3327026367188	-35.40907287597656	223.1311950683594	31.2896842956543	-100.9074783325195	300.2181091308594	406.9520874023438	-63.48940658569336	454.9093322753906	39.79013824462891	-162.350341796875	391.2044372558594	34.346435546875	-200.7720642089844	357.5811157226562	39.34904098510742	-82.38754272460938	164.3221740722656	35.50216674804688	-146.64111328125	
474	4.73	214.2472076416016	1123.455810546875	-143.6321868896484	218.3009185791016	1124.406005859375	-278.92578125	209.1218719482422	1156.936279296875	-213.4839477539062	415.6695556640625	1367.656860351562	-209.0919342041016	163.1508483886719	1303.203979492188	-216.6669006347656	183.3190002441406	1596.958618164062	-232.6094665527344	371.3670349121094	1500.022583007812	-215.6256713867188	137.5457916259766	1410.545166015625	-144.0013885498047	180.2624969482422	1576.042846679688	-334.0576477050781	271.0581359863281	1567.520263671875	-397.972412109375	262.3546142578125	1435.982666015625	-470.5802917480469	298.0694580078125	1219.379028320312	-494.7632751464844	229.0414581298828	1199.668334960938	-443.3701171875	425.5698852539062	976.4242553710938	-447.3987426757812	349.3419799804688	940.3018188476562	-479.9957580566406	327.792236328125	1106.005493164062	-498.7994384765625	457.4768676757812	784.3739624023438	-423.4232177734375	387.0171203613281	869.1788940429688	-478.7944641113281	452.3374328613281	889.64306640625	-457.5024719238281	233.8964996337891	1583.264526367188	-48.60908508300781	220.5066528320312	1508.924072265625	14.93463134765625	229.6681365966797	1214.1396484375	38.74335479736328	228.6761932373047	1211.901733398438	-57.69913482666016	398.0652770996094	987.7266845703125	31.89613342285156	325.7101440429688	963.3447265625	61.81106185913086	260.0635681152344	1143.413208007812	55.81856918334961	441.5769958496094	796.1278686523438	14.03818130493164	437.64306640625	882.14404296875	36.91866302490234	372.0818176269531	867.6664428710938	65.85117340087891	216.8192138671875	1775.731811523438	-152.7074890136719	374.1877746582031	1843.111694335938	-292.1182556152344	376.4034423828125	1852.510498046875	-162.6908569335938	205.4031982421875	1769.42333984375	-288.2539367675781	315.9639282226562	1040.48388671875	-385.077880859375	343.4334716796875	1032.233154296875	-22.73562240600586	421.4516296386719	1109.401977539062	-73.94921112060547	420.3200988769531	1110.569702148438	-340.3638610839844	367.7164306640625	538.928466796875	-360.4198303222656	339.99853515625	684.8441162109375	-384.6161193847656	224.2542724609375	38.55331802368164	-371.8255615234375	254.284423828125	294.5338439941406	-397.3008728027344	453.8038635253906	36.35205841064453	-299.6692199707031	368.85107421875	42.78264617919922	-274.8341064453125	351.4437255859375	34.1197395324707	-393.0289306640625	151.8937072753906	42.12105560302734	-313.7613830566406	327.6559143066406	539.417724609375	-71.05439758300781	359.46435546875	818.2015380859375	-36.18713760375977	223.0964660644531	31.32689476013184	-100.9560470581055	300.3698425292969	407.0137023925781	-64.02588653564453	454.9194030761719	39.80169677734375	-162.3726196289062	391.2082214355469	34.31616592407227	-200.7925109863281	357.5346374511719	39.31599044799805	-82.41522979736328	164.2044982910156	35.52468872070312	-146.7501678466797	
475	4.74	215.1262969970703	1123.585571289062	-144.5161590576172	219.1543884277344	1124.588989257812	-279.8220825195312	210.0549163818359	1157.046508789062	-214.3847045898438	416.8694152832031	1367.517333984375	-209.9727783203125	164.339111328125	1303.354370117188	-217.6217956542969	184.7156372070312	1597.092529296875	-233.6659851074219	372.6961669921875	1499.900756835938	-216.5588531494141	138.7441864013672	1410.802490234375	-144.9703826904297	181.7111968994141	1576.132446289062	-335.1222229003906	272.5077819824219	1567.469116210938	-398.9048461914062	264.2890319824219	1435.999633789062	-471.6101989746094	301.633544921875	1219.5869140625	-495.8637390136719	232.5216979980469	1199.293334960938	-444.7746276855469	431.3943176269531	977.9857177734375	-448.0472412109375	355.6543579101562	941.0391845703125	-480.9136047363281	332.4143371582031	1106.496215820312	-499.8036193847656	465.2151794433594	786.2760620117188	-423.9895324707031	394.1456909179688	870.3554077148438	-479.6300659179688	459.1201171875	891.4880981445312	-458.011474609375	235.3430480957031	1583.391479492188	-49.59315872192383	221.8050689697266	1509.09619140625	13.93815135955811	229.8424377441406	1214.340698242188	37.49073028564453	228.8080444335938	1212.199340820312	-58.94985961914062	395.6428833007812	986.034912109375	30.40362739562988	323.0451049804688	962.5755004882812	60.45996856689453	259.5290832519531	1143.396850585938	54.50684356689453	436.5904846191406	793.8233642578125	12.27662754058838	433.8881225585938	879.9127807617188	35.25007247924805	368.2233276367188	866.2817993164062	64.34366607666016	218.2891235351562	1775.734130859375	-153.9029541015625	375.6488647460938	1843.058227539062	-293.3570251464844	377.8634643554688	1852.569213867188	-163.9384918212891	206.8878784179688	1769.325073242188	-289.4307861328125	316.5734252929688	1040.5078125	-385.8587646484375	343.9000244140625	1032.209106445312	-23.69477081298828	422.3020935058594	1109.28466796875	-74.79396820068359	421.4295959472656	1110.538208007812	-341.2722473144531	365.1586608886719	539.01708984375	-361.18896484375	338.587890625	684.8229370117188	-385.6484069824219	224.1617889404297	38.28756713867188	-371.9449462890625	252.7248687744141	294.3814697265625	-397.81884765625	453.7112731933594	36.43340301513672	-299.6835632324219	368.7906494140625	42.79675674438477	-274.8265380859375	351.4155883789062	34.11307907104492	-393.0468139648438	151.77880859375	41.67193603515625	-313.9225463867188	327.9334411621094	539.4002075195312	-71.65161895751953	360.0433044433594	818.0150756835938	-36.97698211669922	223.0621948242188	31.36189079284668	-101.0029067993164	300.4770202636719	407.0802917480469	-64.53289031982422	454.9263305664062	39.81671142578125	-162.3878326416016	391.2080993652344	34.2926139831543	-200.803955078125	357.4760437011719	39.25854873657227	-82.42200469970703	164.1055908203125	35.54471206665039	-146.8533477783203	
